<svg xmlns="http://www.w3.org/2000/svg" width="355.333" height="245.333" version="1.0"
    viewBox="0 0 265 184">
    <path
        d="M150.8 21.7c-8.7.2-15.8.6-15.8.9 0 .4 1.6 2.8 3.5 5.4 1.9 2.6 3.5 5.3 3.5 5.9 0 .6.5 1.1 1 1.1.6 0 1 8.5 1 23.5V82h-9.5c-5.2 0-9.5-.3-9.5-.8 0-.4 3.6-10.1 8-21.6 4.4-11.5 7.9-21 7.7-21.2-.2-.2-6.3 14.4-13.7 32.4-7.3 18-15.3 36.7-17.7 41.7-15.6 31.3-34.6 46.6-56.4 45.3-4.9-.3-7.6-.9-9.6-2.4-3-2.3-3.3-4.9-1.8-16.1.9-6.5-.4-10-4.8-13-7.3-4.9-17-3.2-21.2 3.9-4.2 7.1-1.1 18.2 6.6 23.8 7.2 5.2 12.9 6.5 27.4 6.4 15 0 20.2-1.5 31.7-9.1 14.2-9.3 24.4-24.4 37.4-55.3l5.2-12.5 10.1-.3 10.1-.3v57.3l-3.4 3.4c-2.2 2.2-4.7 3.5-7.5 4-2.3.4-4.3.9-4.5 1.3-.2.3 17 .6 38.2.5 41.4-.1 45-.4 55-5.2 16-7.7 23.3-26.5 15.9-40.9-4.7-9.1-12-15.1-23.5-19.3l-6.3-2.3 6.8-3.2c7.4-3.5 14.2-9.6 16.9-15.3 1-2 2-6.7 2.2-10.3.7-11.6-4.9-20.4-16.9-26.4-10.7-5.5-14.7-5.7-66.1-4.8zm43.9 3.3c8.4 3.7 13 15.5 12 30.2-.6 9.4-4 17.4-8.9 21.1-4 3.1-13.2 5.7-20 5.7H173V23h8.8c6.4 0 9.8.5 12.9 2zm.6 60.1c10 3.3 15.7 12.7 16.5 27.4.8 15.5-3.8 28.1-12.2 33-3.6 2.1-5.5 2.5-12.5 2.5-4.5 0-9.1-.4-10.1-1-3.5-1.9-4-6.4-4-35.8V82.7l9.3.6c5 .3 10.9 1.2 13 1.8z" />
        <style>
            path{fill: #000}
            @media (prefers-color-scheme: dark) {
                path{fill: #fff}
            }
        </style>
</svg>